{"title":"Minority report [Spanish][dvdrip].avi","uid":7584898,"size":739164160,"categoryP":"video","categoryS":"other","magnet":"?xt=urn:btih:f947f256c2fafef85a4449ce090949c5bea9adda&amp;dn=Minority+report+%5BSpanish%5D%5Bdvdrip%5D.avi&amp;tr=udp%3A%2F%2Ftracker.openbittorrent.com%3A80&amp;tr=udp%3A%2F%2Fopen.demonii.com%3A1337&amp;tr=udp%3A%2F%2Ftracker.coppersurfer.tk%3A6969&amp;tr=udp%3A%2F%2Fexodus.desync.com%3A6969","seeders":0,"leechers":0,"uploader":"hacker1260","files":1,"time":1346385721,"description":"Format                           : AVI\nFormat/Info                      : Audio Video Interleave\nFile size                        : 705 MiB\nDuration                         : 2h 19mn\nOverall bit rate                 : 708 Kbps\nWriting application              : Nandub v1.0rc2\nWriting library                  : Nandub build 1853/release\n\nVideo\nID                               : 0\nFormat                           : MPEG-4 Visual\nFormat settings, BVOP            : Yes\nFormat settings, QPel            : No\nFormat settings, GMC             : No warppoints\nFormat settings, Matrix          : Default (H.263)\nCodec ID                         : DX50\nCodec ID/Hint                    : DivX 5\nDuration                         : 2h 19mn\nBit rate                         : 607 Kbps\nWidth                            : 720 pixels\nHeight                           : 288 pixels\nDisplay aspect ratio             : 2.500\nFrame rate                       : 25.000 fps\nResolution                       : 24 bits\nScan type                        : Progressive\nBits/(Pixel*Frame)               : 0.117\nStream size                      : 605 MiB (86%)\nWriting library                  : DivX 5.0.2 (UTC 2002-05-16)\n\nAudio\nID                               : 1\nFormat                           : MPEG Audio\nFormat version                   : Version 1\nFormat profile                   : Layer 3\nCodec ID                         : 55\nCodec ID/Hint                    : MP3\nDuration                         : 2h 19mn\nBit rate mode                    : Variable\nBit rate                         : 87.7 Kbps\nMinimum bit rate                 : 64.0 Kbps\nChannel(s)                       : 2 channels\nSampling rate                    : 48.0 KHz\nResolution                       : 16 bits\nStream size                      : 87.4 MiB (12%)\nAlignment                        : Aligned on interleaves\nInterleave, duration             : 24 ms (0.60 video frame)\nInterleave, preload duration     : 468 ms\nWriting library                  : LAME3.92 \nEncoding settings                : -m j -V 0 -q 2 -lowpass 21.1 --vbr-old -b 64\n\n","torrent":{"xt":"urn:btih:f947f256c2fafef85a4449ce090949c5bea9adda","amp;dn":"Minority+report+%5BSpanish%5D%5Bdvdrip%5D.avi","amp;tr":["udp%3A%2F%2Ftracker.openbittorrent.com%3A80","udp%3A%2F%2Fopen.demonii.com%3A1337","udp%3A%2F%2Ftracker.coppersurfer.tk%3A6969","udp%3A%2F%2Fexodus.desync.com%3A6969"],"infoHash":"f947f256c2fafef85a4449ce090949c5bea9adda","infoHashBuffer":{"type":"Buffer","data":[249,71,242,86,194,250,254,248,90,68,73,206,9,9,73,197,190,169,173,218]},"announce":[],"urlList":[]}}